<mxfile host="app.diagrams.net" modified="2021-06-29T06:41:13.770Z" agent="5.0 (Windows NT 10.0; Win64; x64) AppleWebKit/537.36 (KHTML, like Gecko) Chrome/91.0.4472.114 Safari/537.36 Edg/91.0.864.54" etag="ngLSUauJYQeRcd_tcOSR" version="14.8.1" type="github">
  <diagram id="YW4IahLpEKhzY00MQ2ns" name="Page-1">
    <mxGraphModel dx="782" dy="468" grid="1" gridSize="10" guides="1" tooltips="1" connect="1" arrows="1" fold="1" page="1" pageScale="1" pageWidth="827" pageHeight="1169" math="0" shadow="0">
      <root>
        <mxCell id="0" />
        <mxCell id="1" parent="0" />
        <mxCell id="eclmrbbeuG5zvKfWPDYI-1" value="&lt;pre style=&quot;background-color: #2b2b2b ; color: #a9b7c6 ; font-family: &amp;#34;jetbrains mono&amp;#34; , monospace ; font-size: 9.8pt&quot;&gt;&lt;span style=&quot;color: #ffc66d&quot;&gt;fixedInvestNew&lt;/span&gt;&lt;/pre&gt;" style="rounded=0;whiteSpace=wrap;html=1;" vertex="1" parent="1">
          <mxGeometry x="50" y="600" width="120" height="60" as="geometry" />
        </mxCell>
        <mxCell id="eclmrbbeuG5zvKfWPDYI-3" value="init_date -&amp;gt; 20210628&lt;br&gt;allot_no -&amp;gt; 644000000202106280006480&lt;br&gt;serial_no -&amp;gt; 6480" style="rounded=0;whiteSpace=wrap;html=1;align=left;verticalAlign=top;" vertex="1" parent="1">
          <mxGeometry x="327" y="600" width="230" height="60" as="geometry" />
        </mxCell>
        <mxCell id="eclmrbbeuG5zvKfWPDYI-5" value="0629下发，在时段内" style="endArrow=classic;html=1;exitX=1;exitY=0.5;exitDx=0;exitDy=0;entryX=0;entryY=0.5;entryDx=0;entryDy=0;" edge="1" parent="1" source="eclmrbbeuG5zvKfWPDYI-1" target="eclmrbbeuG5zvKfWPDYI-3">
          <mxGeometry x="0.1465" y="20" width="50" height="50" relative="1" as="geometry">
            <mxPoint x="230" y="660" as="sourcePoint" />
            <mxPoint x="310" y="630" as="targetPoint" />
            <mxPoint as="offset" />
          </mxGeometry>
        </mxCell>
        <mxCell id="eclmrbbeuG5zvKfWPDYI-6" value="" style="rounded=0;whiteSpace=wrap;html=1;align=left;verticalAlign=top;" vertex="1" parent="1">
          <mxGeometry x="334" y="720" width="226" height="60" as="geometry" />
        </mxCell>
        <mxCell id="eclmrbbeuG5zvKfWPDYI-7" value="" style="endArrow=classic;html=1;exitX=1;exitY=0.5;exitDx=0;exitDy=0;entryX=0;entryY=0.5;entryDx=0;entryDy=0;" edge="1" parent="1" source="eclmrbbeuG5zvKfWPDYI-1" target="eclmrbbeuG5zvKfWPDYI-6">
          <mxGeometry width="50" height="50" relative="1" as="geometry">
            <mxPoint x="190" y="800" as="sourcePoint" />
            <mxPoint x="240" y="750" as="targetPoint" />
          </mxGeometry>
        </mxCell>
        <mxCell id="eclmrbbeuG5zvKfWPDYI-11" value="0629下发，在时段外" style="edgeLabel;html=1;align=center;verticalAlign=middle;resizable=0;points=[];" vertex="1" connectable="0" parent="eclmrbbeuG5zvKfWPDYI-7">
          <mxGeometry x="0.3034" y="2" relative="1" as="geometry">
            <mxPoint x="-8" y="3" as="offset" />
          </mxGeometry>
        </mxCell>
        <mxCell id="eclmrbbeuG5zvKfWPDYI-12" value="&lt;div&gt;{&lt;/div&gt;&lt;div&gt;&amp;nbsp; &quot;fund_account&quot;: &quot;19277098&quot;,&lt;/div&gt;&lt;div&gt;&amp;nbsp; &quot;branch_no&quot;: 19,&lt;/div&gt;&lt;div&gt;&amp;nbsp; &quot;op_station&quot;: &quot;FM-3;MPN:17766427105;IMEI:&quot;,&lt;/div&gt;&lt;div&gt;&amp;nbsp; &quot;balance&quot;: &quot;12&quot;,&lt;/div&gt;&lt;div&gt;&amp;nbsp; &quot;prod_code&quot;: &quot;519068&quot;,&lt;/div&gt;&lt;div&gt;&amp;nbsp; &quot;start_date&quot;: &quot;20210829&quot;,&lt;/div&gt;&lt;div&gt;&amp;nbsp; &quot;end_date&quot;: &quot;20220630&quot;,&lt;/div&gt;&lt;div&gt;&amp;nbsp; &quot;pay_cycle_unit&quot;: &quot;0&quot;,&lt;/div&gt;&lt;div&gt;&amp;nbsp; &quot;en_fund_date&quot;: 4,&lt;/div&gt;&lt;div&gt;&amp;nbsp; &quot;trade_code&quot;: &quot;5df15f62-de08-45c1-b19d-793bd23991f4&quot;,&lt;/div&gt;&lt;div&gt;&amp;nbsp; &quot;op_entrust_way&quot;: &quot;g&quot;&lt;/div&gt;&lt;div&gt;}&lt;/div&gt;" style="rounded=0;whiteSpace=wrap;html=1;align=left;verticalAlign=top;" vertex="1" parent="1">
          <mxGeometry x="20" y="50" width="316" height="190" as="geometry" />
        </mxCell>
        <mxCell id="eclmrbbeuG5zvKfWPDYI-13" value="op_branch_no			操作分支机构		Y	&lt;br&gt;op_entrust_way			委托方式			Y	&lt;br&gt;op_station	&amp;nbsp; &amp;nbsp; 		站点地址			Y	&lt;br&gt;branch_no	&amp;nbsp; &amp;nbsp; 		分支机构			Y	&lt;br&gt;client_id	&amp;nbsp; &amp;nbsp; 		客户编号			N	&lt;br&gt;fund_account			资产账户			Y	&lt;br&gt;&lt;font color=&quot;#ff0000&quot;&gt;password	&amp;nbsp; &amp;nbsp; 		密码				Y	&lt;/font&gt;&lt;br&gt;password_type			密码类别			N	2&#39;,交易密码&lt;br&gt;user_token	&amp;nbsp; &amp;nbsp; 		用户口令			N	空格,使用普通密码检验&lt;br&gt;prod_account			产品账号			N	&lt;br&gt;prod_code				产品代码			Y	&lt;br&gt;prodta_no				产品TA编号			N	&lt;br&gt;trans_account			交易账号			N	&lt;br&gt;balance					发生金额			Y	&lt;br&gt;pay_cycle_unit			扣款周期单位		Y	0:月 1:周 2:日&lt;br&gt;pay_cycle_rate			扣款周期频率		Y	1&lt;br&gt;start_date				开始日期			N	当天日期&lt;br&gt;end_date				到期日期			N	ration_type=&#39;0&#39;时必须&lt;br&gt;en_fund_date			扣款允许日			N	若扣款周期为周或双周,只有1-5有效；当扣款周期为&#39;2&#39;按日扣款时，扣款允许日为非必填，其他情况为必填&lt;br&gt;ration_type				定投期满类型		N	&lt;br&gt;max_ration_balance		最大定投金额		N	ration_type为1时必须&lt;br&gt;max_ration_times		最大定投次数		N	ration_type为2时必须&lt;br&gt;ration_invest_reason	定投目的			N	空格&lt;br&gt;pay_kind				支付方式			N	&#39;0&#39;:保证金;&#39;1&#39;:三方支付;&#39;3&#39;：线下支付;（系统只支持保证金支付时，此字段为非必传；否则该字段为必传）&lt;br&gt;bank_no					银行代码			N	对接三方支付系统时必传&lt;br&gt;pay_account				支付账户			N	对接三方支付系统时必传&lt;br&gt;prodchannel_type		产品渠道类型		N	&lt;br&gt;discount				折扣比例			N	若以周边送入值为准，那需要必填，并且满足数值大于0，小于等于1，4位小数&lt;br&gt;risk_sub_id				风险揭示书协议号	N	&lt;br&gt;remark					备注				N	&lt;br&gt;touch_flag				触发标志			N	&lt;br&gt;incometaxdefer_flag		个税递延标志		N	 &#39;9&#39;和空表示普通代码登记；&#39;1&#39;表示税延基金资金参与代码登记；" style="rounded=0;whiteSpace=wrap;html=1;align=left;verticalAlign=top;" vertex="1" parent="1">
          <mxGeometry x="360" y="50" width="730" height="460" as="geometry" />
        </mxCell>
      </root>
    </mxGraphModel>
  </diagram>
</mxfile>
